<svg xmlns="http://www.w3.org/2000/svg" width="1898" height="256" viewBox="0 0 1898 256">
  <g id="Group_22" data-name="Group 22" transform="translate(-100 -271)">
    <g id="Group_21" data-name="Group 21">
      <g id="Rectangle_33" data-name="Rectangle 33" transform="translate(100 271)" fill="#0334fe" stroke="#fff" stroke-width="8">
        <rect width="256" height="256" rx="32" stroke="none"/>
        <rect x="4" y="4" width="248" height="248" rx="28" fill="none"/>
      </g>
      <g id="Rectangle_34" data-name="Rectangle 34" transform="translate(203 428)" fill="#fff" stroke="#707070" stroke-width="1">
        <rect width="1" height="11" stroke="none"/>
        <rect x="0.5" y="0.5" height="10" fill="none"/>
      </g>
      <rect id="Rectangle_35" data-name="Rectangle 35" width="48" height="128" transform="translate(204 399)" fill="#fff"/>
      <rect id="Rectangle_36" data-name="Rectangle 36" width="96" height="48" transform="translate(180 351)" fill="#e21b1b"/>
    </g>
    <path id="Path_21" data-name="Path 21" d="M27.187.577H.8V-19.4H79.266V.577H52.879V71.785H27.187ZM153.566-19.4h23.956L142.455,85.852q-3.472,10.594-9.808,15.631t-18.141,5.037H98.535V86.547h17.186l3.125-10.073L86.9-19.4h25.519L125.79,23.155l6.6,26.4h1.042l6.77-26.4Zm36.976,0h79.681v91.18H244.531V.577h-28.3V71.785H190.542Zm103.638,0h25.172V17.25l-2.257,21.189h.521L328.2,18.987,353.55-19.4h22.915v91.18H351.293V35.139L353.55,13.95h-.521L342.44,33.4,317.094,71.785H294.18Zm156.932,52.45h-.868a22.484,22.484,0,0,1-8.94,8.771q-5.815,3.213-14.669,3.213-15.45,0-22.481-7.989t-7.031-24.488V-19.4h25.692V11.345q0,6.773,3.212,9.813t10.5,3.039q7.291,0,10.937-2.605a7.832,7.832,0,0,0,3.646-6.6V-19.4H476.8v91.18H451.112Zm86.625,40.814a46.246,46.246,0,0,1-17.967-3.3A35.849,35.849,0,0,1,506.4,61.017a43.546,43.546,0,0,1-8.419-15.11,62.407,62.407,0,0,1-2.951-19.8,62.407,62.407,0,0,1,2.951-19.8A42.622,42.622,0,0,1,506.4-8.715a36.3,36.3,0,0,1,13.367-9.465,50.565,50.565,0,0,1,35.935,0,36.3,36.3,0,0,1,13.367,9.465,42.62,42.62,0,0,1,8.42,15.023,62.406,62.406,0,0,1,2.951,19.8,62.406,62.406,0,0,1-2.951,19.8,43.545,43.545,0,0,1-8.42,15.11A35.849,35.849,0,0,1,555.7,70.569,46.246,46.246,0,0,1,537.737,73.869Zm0-20.32q7.638,0,11.8-4.689t4.166-13.373V16.9q0-8.684-4.166-13.373t-11.8-4.689q-7.638,0-11.8,4.689T521.766,16.9V35.486q0,8.684,4.166,13.373T537.737,53.548ZM598.669-19.4h25.692V15.513h13.194L649.533-6.717q3.646-6.773,8.246-9.726T669.671-19.4H680.26V.577h-9.2l-7.812,14.589a21.4,21.4,0,0,1-4.774,6.426,14.82,14.82,0,0,1-5.468,2.779v.868a16.008,16.008,0,0,1,5.468,2.431,15.727,15.727,0,0,1,4.6,5.558l10.242,18.583h9.374V71.785H670.712q-7.291,0-11.8-2.953T650.4,58.759L637.555,35.486H624.362v36.3H598.669ZM761.677,16.9h28.47v-.521q0-7.815-4.34-12.765t-12.673-4.95q-8.333,0-12.152,3.126a18.758,18.758,0,0,0-5.729,8.858L734.77.056a38.49,38.49,0,0,1,13.888-15.718q9.027-5.818,24.477-5.818,21.7,0,32.723,12.852t11.023,34.735a66.007,66.007,0,0,1-2.778,19.8,39.322,39.322,0,0,1-8.419,15.023A38.189,38.189,0,0,1,791.8,70.482a50.226,50.226,0,0,1-19.182,3.387,58.979,58.979,0,0,1-13.02-1.3,32.451,32.451,0,0,1-18.4-11.2,62.624,62.624,0,0,1-6.944-10.421L753.865,40.7q2.6,6.773,6.944,9.9t11.8,3.126q9.2,0,13.367-4.776t4.166-14.155v-.868h-28.47Zm73.432-36.3h51.906q12.5,0,19.1,6.252t6.6,16.673q0,8.858-4.687,13.72T893.438,23.5v.868q22.741,2.084,22.741,21.015,0,12.157-7.638,19.278t-21.179,7.121H835.109Zm47.566,72.944a7.9,7.9,0,0,0,5.555-1.91,6.938,6.938,0,0,0,2.083-5.384V40.87A7.222,7.222,0,0,0,888.23,35.4a7.691,7.691,0,0,0-5.555-2H860.107V53.548Zm-3.125-35.43a7.275,7.275,0,0,0,5.382-1.91,7.283,7.283,0,0,0,1.909-5.384V6.135A7.282,7.282,0,0,0,884.932.751a7.275,7.275,0,0,0-5.382-1.91H860.107V18.118Zm92.527,55.75a46.246,46.246,0,0,1-17.967-3.3,35.849,35.849,0,0,1-13.367-9.552,43.543,43.543,0,0,1-8.42-15.11,62.407,62.407,0,0,1-2.951-19.8,62.407,62.407,0,0,1,2.951-19.8,42.618,42.618,0,0,1,8.42-15.023A36.3,36.3,0,0,1,954.11-18.18a50.565,50.565,0,0,1,35.935,0,36.3,36.3,0,0,1,13.367,9.465,42.619,42.619,0,0,1,8.419,15.023,62.409,62.409,0,0,1,2.951,19.8,62.409,62.409,0,0,1-2.951,19.8,43.544,43.544,0,0,1-8.419,15.11,35.849,35.849,0,0,1-13.367,9.552A46.246,46.246,0,0,1,972.077,73.869Zm0-20.32q7.638,0,11.8-4.689t4.166-13.373V16.9q0-8.684-4.166-13.373t-11.8-4.689q-7.638,0-11.8,4.689T956.106,16.9V35.486q0,8.684,4.166,13.373T972.077,53.548Zm50.17-1.737h11.8a22.1,22.1,0,0,0,3.038-5.731,52.78,52.78,0,0,0,2.257-8.423,105.678,105.678,0,0,0,1.475-11.9q.521-6.947.521-16.326V-19.4h72.39v91.18H1088.04V.577h-22.047V10.824q0,11.81-.868,20.754a97.174,97.174,0,0,1-2.6,15.457,52.427,52.427,0,0,1-4.079,10.942,29.9,29.9,0,0,1-5.121,7.208,23.532,23.532,0,0,1-9.635,5.905,45.638,45.638,0,0,1-13.627,1.737h-7.812Zm198.074,22.057q-17.88,0-28.47-10.16t-12.846-28.223h-15.624v36.3h-25.692V-19.4h25.692V15.513h15.8q2.43-17.368,12.933-27.18t28.21-9.813a44.959,44.959,0,0,1,17.794,3.3,35.829,35.829,0,0,1,13.107,9.465,41.3,41.3,0,0,1,8.159,15.023,66.006,66.006,0,0,1,2.778,19.8,66.006,66.006,0,0,1-2.778,19.8,42.183,42.183,0,0,1-8.159,15.11,35.391,35.391,0,0,1-13.107,9.552A44.959,44.959,0,0,1,1220.322,73.869Zm0-20.32q7.638,0,11.37-4.689t3.732-13.373V16.9q0-8.684-3.732-13.373t-11.37-4.689q-7.638,0-11.37,4.689T1205.219,16.9V35.486q0,8.684,3.732,13.373T1220.322,53.548Zm132.108,18.236h-72.043V-19.4h25.692V51.812h28.3V-19.4h25.692V51.812h15.624V96.1h-23.262Zm37.844-91.18h25.172V17.25l-2.257,21.189h.521L1424.3,18.987,1449.644-19.4h22.915v91.18h-25.171V35.139l2.257-21.189h-.521L1438.533,33.4l-25.345,38.383h-22.915Zm106.241,0h25.172V17.25l-2.257,21.189h.521l10.589-19.452L1555.885-19.4H1578.8v91.18h-25.172V35.139l2.257-21.189h-.521L1544.775,33.4,1519.43,71.785h-22.915Z" transform="translate(419.2 374.48)" fill="#fff"/>
  </g>
</svg>
