<svg xmlns="http://www.w3.org/2000/svg" width="914" height="312" viewBox="0 0 914 312">
  <path id="Path_22" data-name="Path 22" d="M41.808-92.432H5.2v-9.974H89.819v9.974H53.211V-.268h-11.4Zm134.029-9.974h11.6L140.029,28.458q-2.4,6.384-5.8,8.777t-11.2,2.394h-11.6V29.655h17.2l9.8-26.931-38.008-105.13h12L143.83-12.437h.8Zm34.608,0h77.017V-.268h-11.4V-92.432H221.847V-.268h-11.4Zm114.225,0h11.2v66.23l-1.2,20.547h.8l10.6-18.153,47.61-68.624h10.6V-.268h-11.2V-66.5l1.2-20.547h-.8l-10.8,18.153L335.072-.268h-10.4ZM499.308-50.739h-1a33.271,33.271,0,0,1-11.2,9.875q-7.2,4.09-19.6,4.09-16,0-24.905-7.78t-8.9-24.138v-33.714h11.4V-69.69q0,11.969,6.4,17.355t19,5.386q12.8,0,20.8-4.688t8-13.266v-37.5h11.4V-.268h-11.4ZM584.327,2.126a45.429,45.429,0,0,1-18.4-3.591,38.04,38.04,0,0,1-14-10.473,49.081,49.081,0,0,1-9-16.857,73.642,73.642,0,0,1-3.2-22.542,72.68,72.68,0,0,1,3.2-22.442,49.2,49.2,0,0,1,9-16.757,39.044,39.044,0,0,1,14-10.573,44.367,44.367,0,0,1,18.4-3.691,44.367,44.367,0,0,1,18.4,3.691,39.044,39.044,0,0,1,14,10.573,49.2,49.2,0,0,1,9,16.757,72.678,72.678,0,0,1,3.2,22.442,73.64,73.64,0,0,1-3.2,22.542,49.08,49.08,0,0,1-9,16.857,38.041,38.041,0,0,1-14,10.473A45.429,45.429,0,0,1,584.327,2.126Zm0-10.174q15,0,23.705-9.376t8.7-27.529V-57.721q0-17.954-8.7-27.43t-23.705-9.476q-15,0-23.705,9.376t-8.7,27.529v12.767q0,17.954,8.7,27.43T584.327-8.048Zm73.616-94.358h11.4v44.087h22l23.405-35.708q3.4-5.187,6.1-6.783a13.414,13.414,0,0,1,6.9-1.6h9.4v9.974h-11.8l-19.6,29.923a27.668,27.668,0,0,1-4.7,5.985,14.637,14.637,0,0,1-5.1,2.593v.8a13.469,13.469,0,0,1,5.9,2.494q2.5,1.9,5.7,7.281l19.6,33.115h11.8V-.268h-11.4a12.989,12.989,0,0,1-6.8-1.8q-3-1.8-6-6.982l-23.405-39.5h-22V-.268h-11.4ZM30.406,122.816H78.416v-1.8q0-16.358-8.2-26.233T45.809,84.914q-10.8,0-17.7,4.488T16.8,102.868L8.2,97.282A39.534,39.534,0,0,1,22.3,80.924q9.3-6.184,23.505-6.184,21.4,0,33.107,13.964t11.7,39.5q0,25.535-11.7,39.5T45.809,181.665q-15,0-24.005-6.184A39.427,39.427,0,0,1,8.2,159.522l9.4-4.987A28.661,28.661,0,0,0,28,167q6.8,4.488,17.8,4.488,16.2,0,24.405-9.875t8.2-26.233v-2.793H30.406Zm89.42-45.683h49.411q11.8,0,18.5,6.783t6.7,18.752q0,9.775-4.8,15.361t-13.8,7.182v.8q11.4,1.2,17,7.481t5.6,16.458a36.272,36.272,0,0,1-1.8,11.57,26.829,26.829,0,0,1-5.2,9.276,24.632,24.632,0,0,1-8.4,6.184,27.06,27.06,0,0,1-11.4,2.294H119.825ZM168.636,169.7q8.6,0,13.1-4.688a16.707,16.707,0,0,0,4.5-12.069v-5.187a15.887,15.887,0,0,0-4.8-11.87q-4.8-4.688-14-4.688H131.228v38.5Zm-2.8-47.877q8.2,0,12.3-4.289a15.361,15.361,0,0,0,4.1-11.072v-4.987a14.611,14.611,0,0,0-4-10.673q-4-4.09-11.6-4.09H131.228v35.11Zm101.422,59.847a45.429,45.429,0,0,1-18.4-3.591,38.04,38.04,0,0,1-14-10.473,49.079,49.079,0,0,1-9-16.857,73.639,73.639,0,0,1-3.2-22.542,72.677,72.677,0,0,1,3.2-22.442,49.2,49.2,0,0,1,9-16.757,39.043,39.043,0,0,1,14-10.573,47.734,47.734,0,0,1,36.808,0,39.044,39.044,0,0,1,14,10.573,49.2,49.2,0,0,1,9,16.757,72.677,72.677,0,0,1,3.2,22.442,73.639,73.639,0,0,1-3.2,22.542,49.08,49.08,0,0,1-9,16.857,38.04,38.04,0,0,1-14,10.473A45.429,45.429,0,0,1,267.257,181.665Zm0-10.174q15,0,23.705-9.376t8.7-27.529V121.819q0-17.954-8.7-27.43t-23.705-9.476q-15,0-23.705,9.376t-8.7,27.529v12.767q0,17.954,8.7,27.43T267.257,171.492ZM323.07,169.3h12.8a49.882,49.882,0,0,0,5.3-8.678,61.193,61.193,0,0,0,4.3-12.568,131.286,131.286,0,0,0,2.8-17.655q1-10.174,1-23.739V77.134H414.29V179.272h-11.4V87.108H360.278v19.949a227.159,227.159,0,0,1-1.3,25.934,143.485,143.485,0,0,1-3.4,19.251,64.8,64.8,0,0,1-4.9,13.465,33.914,33.914,0,0,1-5.8,8.379,18.129,18.129,0,0,1-6.5,3.99,25.027,25.027,0,0,1-8.1,1.2h-7.2Zm208.446,12.368q-19.4,0-31.007-13.166t-12.4-37.5H462.9v48.276H451.5V77.134h11.4V121.22h25.406q1.6-22.542,13-34.512T531.515,74.74q20.2,0,31.907,13.864t11.7,39.6q0,25.734-11.7,39.6T531.515,181.665Zm0-10.174q14.6,0,22.905-9.276t8.3-27.629V121.819q0-18.353-8.3-27.629t-22.905-9.276q-14.6,0-22.9,9.276t-8.3,27.629v12.767q0,18.353,8.3,27.629T531.515,171.492Zm155.234,7.78H604.131V77.134h11.4V169.3h54.012V77.134h11.4V169.3h16.4v37.9h-10.6ZM722.757,77.134h11.2v66.23l-1.2,20.547h.8l10.6-18.153,47.61-68.624h10.6V179.272h-11.2v-66.23l1.2-20.547h-.8l-10.8,18.153-47.61,68.624h-10.4Zm116.826,0h11.2v66.23l-1.2,20.547h.8l10.6-18.153L908.6,77.134h10.6V179.272H908v-66.23l1.2-20.547h-.8l-10.8,18.153-47.61,68.624h-10.4Z" transform="translate(-5.2 104.8)" fill="#fff"/>
</svg>
